# xmcd
#
# Track frame offsets:
# 150
# 9893
# 20958
# 34926
# 47481
# 57524
# 71529
# 82355
# 95043
# 105035
# 116024
# 127970
# 144059
# 156552
# 166613
# 179367
# 191789
# 209367
# 222318
# 232736
# 244825
# 255068
# 266782
# 279158
#
# Disc length: 3865 seconds
#
# Revision: 0
# Processed by: cddbd v1.5.1PL2 Copyright (c) Steve Scherf et al.
# Submitted via: Audion 3.0.2 (http://www.panic.com/audion/)
#
DISCID=4b0f1718
DTITLE=Brenda lee - Thats all_all alone am i
DYEAR=1900
DGENRE=
TTITLE0=im sitting on top of the world
TTITLE1=fool  no 1
TTITLE2=white silver sands
TTITLE3=just out of reach
TTITLE4=sweethearts on parade
TTITLE5=its a lonely old town
TTITLE6=organ grinders swing
TTITLE7=gonna find me a bluebird
TTITLE8=why me
TTITLE9=valley of tears
TTITLE10=someday youll want me to want you
TTITLE11=you can depend on me
TTITLE12=all alone am i
TTITLE13=by myself
TTITLE14=i left my heart in san fransisco
TTITLE15=its alright with me
TTITLE16=my colouring book
TTITLE17=my prayer
TTITLE18=lover
TTITLE19=all by myself
TTITLE20=what kind of fool am i
TTITLE21=come rain or come shine
TTITLE22=i hadnt anyone till you
TTITLE23=fly me to the moon
EXTD=
EXTT0=
EXTT1=
EXTT2=
EXTT3=
EXTT4=
EXTT5=
EXTT6=
EXTT7=
EXTT8=
EXTT9=
EXTT10=
EXTT11=
EXTT12=
EXTT13=
EXTT14=
EXTT15=
EXTT16=
EXTT17=
EXTT18=
EXTT19=
EXTT20=
EXTT21=
EXTT22=
EXTT23=
PLAYORDER=
